<?xml version="1.0" encoding="utf-8"?>
<!-- Generator: Adobe Illustrator 26.0.2, SVG Export Plug-In . SVG Version: 6.00 Build 0)  -->
<svg version="1.1" id="Layer_1" xmlns="http://www.w3.org/2000/svg" xmlns:xlink="http://www.w3.org/1999/xlink" x="0px" y="0px"
	 viewBox="0 0 117 117" style="enable-background:new 0 0 117 117;" xml:space="preserve">
<style type="text/css">
	.st0{enable-background:new    ;}
	.st1{fill:#21B8EC;}
	.st2{fill:#21B8EC;stroke:#21B8EC;}
</style>
<g id="Group_16246_00000138536404246576772050000000967076573221795256_" transform="translate(-534.614 -752.832)">
	<path id="Path_88476_00000083769620042941093540000011533980002987884441_" class="st2" d="M586.5,807c-0.3,0.3-0.6,0.6-0.9,0.9
		c-0.4,0.3-0.9,0.6-1.4,1l-2.9,1.9c-1.3,0.9-2.5,2-3.3,3.4c-0.7,1.3-1,2.6-1,4.1v2.3c0,0.1,0.1,0.3,0.2,0.4c0.1,0.1,0.3,0.2,0.4,0.2
		h11.3c0.1,0,0.3-0.1,0.4-0.1c0.1-0.1,0.2-0.2,0.2-0.4v-1.2c0-0.1-0.1-0.3-0.2-0.4c-0.1-0.1-0.3-0.1-0.4-0.1h-9.7v-0.6
		c0-0.6,0.1-1.1,0.2-1.7c0.1-0.5,0.3-1,0.6-1.5c0.3-0.5,0.7-1,1.2-1.4c0.6-0.5,1.3-1,2-1.5l2.7-1.8c1.1-0.7,2-1.5,2.8-2.6
		c0.6-0.9,0.9-1.9,0.8-2.9c0.1-1.5-0.5-2.9-1.7-3.9c-1.5-0.9-3.3-1.4-5.1-1.2c-0.9,0-1.7,0.1-2.6,0.2c-0.8,0.1-1.6,0.2-2.4,0.5
		c-0.1,0-0.3,0.1-0.4,0.2c-0.1,0.1-0.2,0.2-0.2,0.3v1c0,0.3,0.1,0.5,0.4,0.5h0.1c0.8-0.1,1.6-0.2,2.5-0.3c0.9-0.1,1.7-0.1,2.4-0.1
		c1.1-0.1,2.3,0.1,3.3,0.7c0.7,0.5,1.1,1.4,1,2.2c0,0.4,0,0.8-0.1,1.1C586.9,806.4,586.7,806.7,586.5,807z"/>
	<path id="Path_88477_00000155132675135855987180000015904363233797910941_" class="st2" d="M607.6,813.3h-2.5v-12.7
		c0-0.4-0.2-0.6-0.7-0.6h-1.7c-0.2,0-0.4,0-0.5,0.1c-0.1,0.1-0.2,0.2-0.3,0.3l-8.5,11.8c-0.2,0.3-0.3,0.7-0.3,1.1v1.1
		c0,0.3,0.1,0.6,0.3,0.9c0.3,0.2,0.6,0.3,0.9,0.2h8.3v5c0,0.1,0,0.3,0.1,0.4c0.1,0.1,0.2,0.2,0.4,0.2h1.6c0.1,0,0.3-0.1,0.4-0.2
		c0.1-0.1,0.1-0.3,0.1-0.4v-5h2.5c0.4,0,0.5-0.2,0.5-0.5v-1.2c0-0.1-0.1-0.3-0.2-0.4C607.9,813.4,607.7,813.3,607.6,813.3z
		 M602.6,813.3h-6.8c-0.1,0-0.2-0.1-0.2-0.2c0-0.1,0-0.2,0.1-0.2l6.6-9.3c0.1-0.1,0.2-0.2,0.2-0.2h0c0.1,0,0.1,0.1,0.1,0.2
		L602.6,813.3z"/>
	<path id="Path_88478_00000145774979485854295020000001622438962478443910_" class="st2" d="M593.5,843.1
		c-18.3,0-33.1-14.8-33.1-33.1c0-8,2.9-15.7,8.1-21.7l1.7,6.5l1.7-0.4l-2.3-8.9l-9.2,2.4l0.4,1.7l5.8-1.5c-12.1,15-9.8,36.9,5.2,49
		c9.5,7.7,22.5,9.9,34,5.6l-0.6-1.6C601.3,842.4,597.5,843.1,593.5,843.1z"/>
	<path id="Path_88479_00000160898836184075018730000007887828679951021464_" class="st2" d="M628.4,810c0-19.3-15.6-34.9-34.9-34.9
		c-6.2,0-12.2,1.6-17.6,4.8l0.9,1.5c15.8-9.2,36.1-3.9,45.3,11.9c8.9,15.2,4.3,34.7-10.4,44.4l0.7-5.8l-1.7-0.2l-1.1,9.1l9.5,1.2
		l0.2-1.7l-7-0.9C622.3,832.9,628.4,821.8,628.4,810z"/>
	<path id="Path_88480_00000163056589955568749650000009375396737475987586_" class="st2" d="M620.8,823.1c7.4-13.8,2.3-31-11.5-38.4
		c-0.8-0.4-1.6-0.8-2.4-1.2l-0.7,1.6c13.5,5.7,19.9,21.4,14.1,34.9c-0.3,0.8-0.7,1.5-1.1,2.3L620.8,823.1z"/>
	<path id="Path_88481_00000119087566405889877400000014319163262666604182_" class="st2" d="M568.2,823.2l-1.5,0.8
		c3.9,7.9,11.3,13.6,19.9,15.3l0.3-1.7C578.7,835.9,571.8,830.6,568.2,823.2z"/>
</g>
</svg>
