<?xml version="1.0" encoding="utf-8"?>
<!-- Generator: Adobe Illustrator 26.0.2, SVG Export Plug-In . SVG Version: 6.00 Build 0)  -->
<svg version="1.1" id="Layer_1" xmlns="http://www.w3.org/2000/svg" xmlns:xlink="http://www.w3.org/1999/xlink" x="0px" y="0px"
	 viewBox="0 0 117 117" style="enable-background:new 0 0 117 117;" xml:space="preserve">
<style type="text/css">
	.st0{enable-background:new    ;}
	.st1{fill:#21B8EC;}
	.st2{fill:#21B8EC;stroke:#21B8EC;}
</style>
<g class="st0">
	<g>
		<path class="st1" d="M19.9,79.3c-4,0-7.3-1.1-9.8-3.2c-2.6-2.2-3.9-5.1-3.9-8.6v-1h9.4v1c0,1.1,0.4,2,1.3,2.7
			c0.9,0.8,2,1.1,3.3,1.1c1.5,0,2.7-0.4,3.5-1.2c0.8-0.8,1.2-1.7,1.2-3c0-3.2-1.6-4.7-5.2-4.7h-4.9v-7.8h4.9c1.6,0,2.8-0.4,3.5-1.1
			c0.7-0.8,1.1-1.8,1.1-3.1c0-1.3-0.3-2.2-1.1-2.8c-0.7-0.7-1.7-1-3.1-1c-1.2,0-2.2,0.3-3,1c-0.7,0.6-1.1,1.3-1.1,2.3v1H6.6v-1
			c0-2.2,0.6-4.1,1.8-5.8c1.2-1.7,2.8-3,4.8-4c2-0.9,4.3-1.4,6.7-1.4c4.2,0,7.5,1,10,3.1c2.5,2.1,3.7,5,3.7,8.6
			c0,1.9-0.6,3.7-1.8,5.3c-0.8,1.1-1.7,1.9-2.8,2.7c1.4,0.8,2.6,1.8,3.4,3c1.1,1.7,1.7,3.7,1.7,5.9c0,3.6-1.3,6.6-4,8.8
			C27.6,78.2,24.1,79.3,19.9,79.3z M8.1,68.5c0.2,2.5,1.3,4.6,3.2,6.2c2.2,1.8,5.1,2.8,8.6,2.8c3.8,0,6.8-0.9,9.1-2.8
			c2.2-1.8,3.3-4.2,3.3-7.3c0-1.9-0.5-3.5-1.4-4.8c-0.9-1.3-2.4-2.4-4.3-3.1l-2.2-0.8l2.1-1c1.5-0.7,2.8-1.7,3.8-3
			c0.9-1.3,1.4-2.7,1.4-4.2c0-3.1-1-5.4-3-7.1c-2.1-1.7-5-2.6-8.7-2.6c-2.1,0-4.1,0.4-5.9,1.2c-1.7,0.8-3.1,1.9-4.1,3.3
			c-0.8,1.2-1.2,2.4-1.4,3.8h5.6c0.2-1.1,0.8-2.1,1.7-2.8c1.1-0.9,2.5-1.4,4.2-1.4c1.8,0,3.3,0.5,4.4,1.5c1.1,1,1.7,2.5,1.7,4.2
			c0,1.8-0.6,3.3-1.6,4.4c-1.1,1.1-2.7,1.7-4.9,1.7h-3v3.9h3c5.9,0,7.2,3.6,7.2,6.6c0,1.8-0.6,3.3-1.8,4.4c-1.2,1.1-2.8,1.7-4.8,1.7
			c-1.8,0-3.3-0.5-4.5-1.6c-1-0.9-1.7-2-1.9-3.2H8.1z"/>
	</g>
	<g>
		<path class="st1" d="M51,79.3c-4.4,0-7.8-1.5-10.2-4.4c-2.3-2.9-3.5-7-3.5-12.2v-6.9c0-5.5,1.2-9.7,3.5-12.6
			c2.4-2.9,5.8-4.4,10.2-4.4c4.4,0,7.8,1.5,10.2,4.4c2.3,2.9,3.5,7,3.5,12.2v6.9c0,5.4-1.2,9.6-3.4,12.5
			C58.9,77.8,55.5,79.3,51,79.3z M51,40.6c-3.8,0-6.7,1.2-8.7,3.7c-2,2.5-3.1,6.4-3.1,11.4v6.9c0,4.8,1.1,8.5,3.1,11
			c2,2.5,4.8,3.7,8.7,3.7c3.9,0,6.7-1.2,8.7-3.8c2-2.6,3-6.4,3-11.4v-6.9c0-4.8-1.1-8.5-3.1-11C57.7,41.8,54.8,40.6,51,40.6z
			 M51,73.3c-2.2,0-3.9-0.9-4.9-2.7c-0.9-1.7-1.4-4-1.4-7.3v-9.2c0.1-3.1,0.5-5.3,1.5-6.9c1-1.6,2.6-2.5,4.7-2.5
			c2.1,0,3.8,0.9,4.8,2.6c1,1.6,1.4,4,1.4,7.3v9c0,3.2-0.5,5.5-1.4,7C54.9,72.4,53.2,73.3,51,73.3z M51,46.6c-1.4,0-2.4,0.5-3.1,1.6
			c-0.7,1.2-1.1,3.2-1.2,5.9v9.1c0,2.9,0.4,5,1.1,6.4c0.7,1.2,1.7,1.7,3.2,1.7c1.5,0,2.5-0.5,3.1-1.7c0.7-1.3,1.1-3.3,1.1-6.1v-8.9
			c0-2.9-0.4-5.1-1.1-6.3C53.5,47.2,52.5,46.6,51,46.6z"/>
	</g>
	<g>
		<path class="st1" d="M81.4,79.3c-4.4,0-7.8-1.5-10.2-4.4c-2.3-2.9-3.5-7-3.5-12.2v-6.9c0-5.5,1.2-9.7,3.5-12.6
			c2.4-2.9,5.8-4.4,10.2-4.4c4.4,0,7.8,1.5,10.2,4.4c2.3,2.9,3.5,7,3.5,12.2v6.9c0,5.4-1.2,9.6-3.4,12.5
			C89.3,77.8,85.9,79.3,81.4,79.3z M81.4,40.6c-3.8,0-6.7,1.2-8.7,3.7c-2,2.5-3.1,6.4-3.1,11.4v6.9c0,4.8,1.1,8.5,3.1,11
			c2,2.5,4.8,3.7,8.7,3.7c3.9,0,6.7-1.2,8.7-3.8c2-2.6,3-6.4,3-11.4v-6.9c0-4.8-1.1-8.5-3.1-11C88,41.8,85.2,40.6,81.4,40.6z
			 M81.4,73.3c-2.2,0-3.9-0.9-4.9-2.7c-0.9-1.7-1.4-4-1.4-7.3v-9.2c0.1-3.1,0.5-5.3,1.5-6.9c1-1.6,2.6-2.5,4.7-2.5
			c2.2,0,3.8,0.9,4.8,2.6c1,1.6,1.4,4,1.4,7.3v9c0,3.2-0.5,5.5-1.4,7C85.2,72.4,83.6,73.3,81.4,73.3z M81.4,46.6
			c-1.4,0-2.4,0.5-3.1,1.6c-0.7,1.2-1.1,3.2-1.2,5.9v9.1c0,2.9,0.4,5,1.1,6.4c0.7,1.2,1.7,1.7,3.2,1.7c1.5,0,2.5-0.5,3.1-1.7
			c0.7-1.3,1.1-3.3,1.1-6.1v-8.9c0-2.9-0.4-5.1-1.1-6.3C83.9,47.2,82.8,46.6,81.4,46.6z"/>
	</g>
</g>
<g class="st0">
	<g>
		<path class="st1" d="M108,58.9h-6.1v-6.2h-5.5v-5.8h5.5V41h6.1v5.9h5.4v5.8H108V58.9z M103.9,57h2.2v-6.2h5.4v-2h-5.4v-5.9h-2.2
			v5.9h-5.5v2h5.5V57z"/>
	</g>
</g>
</svg>
