<?xml version="1.0" encoding="utf-8"?>
<!-- Generator: Adobe Illustrator 26.0.2, SVG Export Plug-In . SVG Version: 6.00 Build 0)  -->
<svg version="1.1" id="Layer_1" xmlns="http://www.w3.org/2000/svg" xmlns:xlink="http://www.w3.org/1999/xlink" x="0px" y="0px"
	 viewBox="0 0 117 117" style="enable-background:new 0 0 117 117;" xml:space="preserve">
<style type="text/css">
	.st0{enable-background:new    ;}
	.st1{fill:#21B8EC;}
	.st2{fill:#21B8EC;stroke:#21B8EC;}
</style>
<g id="Group_14539" transform="translate(-3284.207 -1716.309)">
	<g id="Path_88482">
		<path class="st1" d="M3342.7,1809.8c-14.5,0-28.2-9-33.4-23.4c-3.2-8.9-2.8-18.5,1.3-27.1c4-8.6,11.1-15,20-18.3
			c0.4-0.2,0.9-0.1,1.3,0.2c0.4,0.3,0.6,0.7,0.6,1.2v28.6c0,0.8-0.7,1.5-1.5,1.5h-6.2c-0.2,0-0.4,0.1-0.5,0.2c-0.3,0.3-0.3,0.7,0,1
			l16.8,16.9c0.8,0.8,2.1,0.8,2.9,0l16.8-16.9c0.1-0.1,0.2-0.3,0.2-0.5c0-0.4-0.3-0.7-0.7-0.7h-6.2c-0.8,0-1.5-0.7-1.5-1.5v-28.6
			c0-0.5,0.2-0.9,0.6-1.2c0.4-0.3,0.9-0.3,1.3-0.2c10,3.6,17.7,11.4,21.3,21.3c3.2,8.9,2.8,18.5-1.3,27.1s-11.1,15-20,18.3
			C3350.8,1809.1,3346.7,1809.8,3342.7,1809.8z M3329.7,1744.6c-7.3,3.1-13,8.8-16.4,16c-3.7,7.9-4.1,16.7-1.2,24.8
			c6.1,16.9,24.7,25.6,41.6,19.6c8.2-2.9,14.7-8.9,18.4-16.7s4.1-16.7,1.2-24.8c-3.1-8.5-9.4-15.2-17.6-18.8v25h4.8
			c2,0,3.6,1.6,3.6,3.6c0,1-0.4,1.9-1,2.5l-16.8,16.9c-1.9,1.9-5.1,1.9-7,0l-16.8-16.9c-1.4-1.4-1.4-3.7,0-5.1c0.7-0.7,1.6-1,2.5-1
			h4.8V1744.6z"/>
	</g>
	<g id="Line_7">
		<path class="st1" d="M3338.9,1756.6c-0.8,0-1.5-0.7-1.5-1.5v-13.9c0-0.8,0.7-1.5,1.5-1.5c0.8,0,1.5,0.7,1.5,1.5v13.9
			C3340.3,1755.9,3339.7,1756.6,3338.9,1756.6z"/>
	</g>
	<g id="Line_8">
		<path class="st1" d="M3346.5,1750.7c-0.8,0-1.5-0.7-1.5-1.5v-7.9c0-0.8,0.7-1.5,1.5-1.5c0.8,0,1.5,0.7,1.5,1.5v7.9
			C3348,1750,3347.3,1750.7,3346.5,1750.7z"/>
	</g>
	<g id="Line_9">
		<path class="st1" d="M3346.5,1761c-0.8,0-1.5-0.7-1.5-1.5v-6.1c0-0.8,0.7-1.5,1.5-1.5c0.8,0,1.5,0.7,1.5,1.5v6.1
			C3348,1760.4,3347.3,1761,3346.5,1761z"/>
	</g>
</g>
</svg>
