<svg xmlns="http://www.w3.org/2000/svg" width="44.628" height="39.328" viewBox="0 0 44.628 39.328">
  <path id="Path_94191" data-name="Path 94191" d="M64.941,60.777a19,19,0,0,1-29.279-.246L38.5,58.736l-6.539-4.258.908,7.807M40.49,32.306q.516-.315,1.053-.6A19.01,19.01,0,0,1,69.305,46.6l-3.352,0,3.253,7.093,3.4-7.085M34.863,37.972c.211-2.249,2.224-3.374,4.47-3.374s4.259,1.125,4.471,3.374a12.244,12.244,0,0,1-.737,5,4.822,4.822,0,0,1-3.017,2.1,3.681,3.681,0,0,1-1.434,0,4.817,4.817,0,0,1-3.015-2.1,12.227,12.227,0,0,1-.738-5Zm13.18,11.56a4.85,4.85,0,0,0-.575-1.035c-1.616-2.109-14.654-2.109-16.27,0-.952,1.241-1.716,4.519-1.984,7.5M50.035,39.069c.258-2.758,2.728-4.137,5.483-4.137S60.741,36.311,61,39.069c.134,1.44-.189,4.846-.9,6.136a5.911,5.911,0,0,1-3.7,2.582,4.527,4.527,0,0,1-1.759,0,5.911,5.911,0,0,1-3.7-2.582c-.716-1.29-1.039-4.7-.9-6.136ZM67.929,61.183c-.2-2.188-.938-7.255-2.433-9.2-1.982-2.587-17.975-2.587-19.956,0-1.169,1.523-2.106,5.542-2.434,9.2" transform="translate(-28.567 -28.871)" fill="none" stroke="#21b8ec" stroke-miterlimit="22.926" stroke-width="1.3" fill-rule="evenodd"/>
</svg>
