<svg xmlns="http://www.w3.org/2000/svg" width="45.6" height="36.556" viewBox="0 0 45.6 36.556">
  <g id="Group_16250" data-name="Group 16250" transform="translate(-207.818 -508.129)">
    <path id="Path_94192" data-name="Path 94192" d="M259.88,581.42h-10.5a.583.583,0,0,1-.525-.9l5.251-9.145a.6.6,0,0,1,1.045,0l5.251,9.145a.583.583,0,0,1-.525.9Zm-10.128-.819h9.758l-4.879-8.5Z" transform="translate(-24.014 -37.015)" fill="#21b8ec" stroke="#21b8ec" stroke-width="0.5"/>
    <path id="Path_94193" data-name="Path 94193" d="M252.729,562.4a.4.4,0,0,1-.187-.046L208.32,539.569a.41.41,0,1,1,.375-.728l44.222,22.782a.409.409,0,0,1-.188.773Z" transform="translate(0 -17.962)" fill="#21b8ec" stroke="#21b8ec" stroke-width="0.5"/>
    <path id="Path_94194" data-name="Path 94194" d="M226.906,523.949a7.789,7.789,0,0,1-3.221-14.864,7.648,7.648,0,0,1,3.213-.706,7.789,7.789,0,0,1,3.22,14.865A7.655,7.655,0,0,1,226.906,523.949ZM226.9,509.2a6.83,6.83,0,0,0-2.871.631,6.97,6.97,0,0,0,2.879,13.3,6.829,6.829,0,0,0,2.871-.631,6.97,6.97,0,0,0-2.879-13.3Z" transform="translate(-6.532)" fill="#21b8ec" stroke="#21b8ec" stroke-width="0.5"/>
    <path id="Path_94195" data-name="Path 94195" d="M300.949,569.722a4.255,4.255,0,0,1-1.759-8.121,4.18,4.18,0,0,1,1.755-.385,4.256,4.256,0,0,1,1.761,8.121A4.185,4.185,0,0,1,300.949,569.722Zm0-7.687a3.367,3.367,0,0,0-1.413.311,3.436,3.436,0,0,0,1.418,6.557,3.366,3.366,0,0,0,1.415-.311,3.436,3.436,0,0,0-1.42-6.557Z" transform="translate(-52.332 -31.202)" fill="#21b8ec" stroke="#21b8ec" stroke-width="0.5"/>
  </g>
</svg>
