<svg xmlns="http://www.w3.org/2000/svg" width="32.372" height="34.758" viewBox="0 0 32.372 34.758">
  <g id="Group_16252" data-name="Group 16252" transform="translate(-664.234 -399.4)">
    <path id="Path_94196" data-name="Path 94196" d="M760.492,959.509c-2.329,3.011-6.665,4.2-11.634,4.2s-9.3-1.193-11.634-4.2" transform="translate(-68.438 -530.29)" fill="none" stroke="#21b8ec" stroke-linecap="round" stroke-linejoin="round" stroke-width="1.2"/>
    <g id="Group_16251" data-name="Group 16251" transform="translate(669.975 413.578)">
      <line id="Line_248" data-name="Line 248" x2="5.222" transform="translate(9.4 4.178)" fill="none" stroke="#21b8ec" stroke-linecap="round" stroke-linejoin="round" stroke-width="1.2"/>
      <line id="Line_249" data-name="Line 249" x1="5.222" transform="translate(6.267 10.444)" fill="none" stroke="#21b8ec" stroke-linecap="round" stroke-linejoin="round" stroke-width="1.2"/>
      <line id="Line_250" data-name="Line 250" x1="8.356" transform="translate(6.267 7.311)" fill="none" stroke="#21b8ec" stroke-linecap="round" stroke-linejoin="round" stroke-width="1.2"/>
      <path id="Path_94197" data-name="Path 94197" d="M1040,671.489l6.267-5.744L1040,660" transform="translate(-1025.378 -660)" fill="none" stroke="#21b8ec" stroke-linecap="round" stroke-linejoin="round" stroke-width="1.2"/>
      <path id="Path_94198" data-name="Path 94198" d="M766.267,720,760,725.745l6.267,5.744" transform="translate(-760 -716.867)" fill="none" stroke="#21b8ec" stroke-linecap="round" stroke-linejoin="round" stroke-width="1.2"/>
      <line id="Line_251" data-name="Line 251" y1="4.178" transform="translate(14.622 0)" fill="none" stroke="#21b8ec" stroke-linecap="round" stroke-linejoin="round" stroke-width="1.2"/>
      <line id="Line_252" data-name="Line 252" y1="4.178" transform="translate(14.622 7.311)" fill="none" stroke="#21b8ec" stroke-linecap="round" stroke-linejoin="round" stroke-width="1.2"/>
      <line id="Line_253" data-name="Line 253" y1="4.178" transform="translate(6.267 3.133)" fill="none" stroke="#21b8ec" stroke-linecap="round" stroke-linejoin="round" stroke-width="1.2"/>
      <line id="Line_254" data-name="Line 254" y2="4.178" transform="translate(6.267 10.444)" fill="none" stroke="#21b8ec" stroke-linecap="round" stroke-linejoin="round" stroke-width="1.2"/>
    </g>
    <path id="Path_94199" data-name="Path 94199" d="M669.335,680a18.925,18.925,0,0,0-2.366,8.712,11.116,11.116,0,0,0,.394,3.027c-2.185,2.487-3,5.289-1.787,6.5,1.12,1.12,3.608.506,5.946-1.328" transform="translate(0 -265.378)" fill="none" stroke="#21b8ec" stroke-linecap="round" stroke-linejoin="round" stroke-width="1.2"/>
    <path id="Path_94200" data-name="Path 94200" d="M842.216,404.725A9.033,9.033,0,0,0,844.991,400h-3.573l-3.133,3.133V400h-6.707a9.033,9.033,0,0,0,2.775,4.725" transform="translate(-157.865)" fill="none" stroke="#21b8ec" stroke-linecap="round" stroke-linejoin="round" stroke-width="1.2"/>
    <path id="Path_94201" data-name="Path 94201" d="M1048.98,570.161c2.338,1.834,4.825,2.448,5.946,1.328,1.209-1.209.4-4.011-1.787-6.5a11.116,11.116,0,0,0,.394-3.027c0-5.883-3.777-12.992-9.038-15.7" transform="translate(-359.663 -138.629)" fill="none" stroke="#21b8ec" stroke-linecap="round" stroke-linejoin="round" stroke-width="1.2"/>
    <path id="Path_94202" data-name="Path 94202" d="M808.9,546.273a13.953,13.953,0,0,0-3.671,2.806" transform="translate(-132.889 -138.634)" fill="none" stroke="#21b8ec" stroke-linecap="round" stroke-linejoin="round" stroke-width="1.2"/>
    <line id="Line_255" data-name="Line 255" x2="12.533" transform="translate(667.886 412.533)" fill="none" stroke="#21b8ec" stroke-linecap="round" stroke-linejoin="round" stroke-width="1.2" stroke-dasharray="20 40 240"/>
    <path id="Path_94203" data-name="Path 94203" d="M868.878,490h-7.311A1.567,1.567,0,0,0,860,491.567h0a1.567,1.567,0,0,0,1.567,1.567h7.311a1.567,1.567,0,0,0,1.567-1.567h0A1.567,1.567,0,0,0,868.878,490Z" transform="translate(-184.803 -85.3)" fill="none" stroke="#21b8ec" stroke-linecap="round" stroke-linejoin="round" stroke-width="1.2"/>
  </g>
</svg>
