<svg xmlns="http://www.w3.org/2000/svg" width="33.653" height="33.652" viewBox="0 0 33.653 33.652">
  <g id="Group_13543" data-name="Group 13543" transform="translate(-990.584 -6586.584)">
    <g id="Group_13541" data-name="Group 13541" transform="translate(990.584 6586.584)">
      <g id="Group_13538" data-name="Group 13538" transform="translate(6.443 5.217)">
        <path id="Path_87266" data-name="Path 87266" d="M177.583,170.79c-2.823,0-5.034-3.353-5.034-7.633,0-5.14,3.154-5.907,5.034-5.907s5.034.767,5.034,5.907C182.618,167.437,180.406,170.79,177.583,170.79Zm0-12.09c-2.384,0-3.592,1.5-3.592,4.457,0,3.351,1.645,6.182,3.592,6.182s3.592-2.831,3.592-6.182C181.175,160.2,179.967,158.7,177.583,158.7Z" transform="translate(-172.549 -157.25)" fill="#21b8ec"/>
      </g>
      <g id="Group_13539" data-name="Group 13539" transform="translate(18.859 0)">
        <path id="Path_87267" data-name="Path 87267" d="M239.587,142.42c-2.42,0-4.316-2.847-4.316-6.481,0-3.2,1.573-5.043,4.316-5.043s4.315,1.838,4.315,5.043C243.9,139.573,242.007,142.42,239.587,142.42Zm0-10.074c-1.934,0-2.874,1.175-2.874,3.593,0,3.01,1.486,5.031,2.874,5.031s2.873-2.022,2.873-5.031C242.46,133.521,241.52,132.346,239.587,132.346Z" transform="translate(-235.271 -130.896)" fill="#21b8ec"/>
      </g>
      <g id="Group_13540" data-name="Group 13540" transform="translate(0 12.594)">
        <path id="Path_87268" data-name="Path 87268" d="M140.723,215.573a.726.726,0,0,1-.721-.719c-.04-3.9.519-9.074,2.225-10.807a2.242,2.242,0,0,1,1.613-.719h.318l.386,0a2.225,2.225,0,0,0,2.074-.829.722.722,0,0,1,1.095.942,3.628,3.628,0,0,1-3.2,1.337l-.358,0h-.309a.79.79,0,0,0-.589.29c-1.587,1.613-1.782,7.972-1.8,8.691a.355.355,0,0,0,.1.256.351.351,0,0,0,.252.107h3.212a.353.353,0,0,0,.352-.354v-4.318a.721.721,0,1,1,1.442,0v4.318a.353.353,0,0,0,.353.354h8.588a.353.353,0,0,0,.352-.354v-4.318a.721.721,0,1,1,1.442,0v4.318a.353.353,0,0,0,.352.354h3.212a.351.351,0,0,0,.252-.107.356.356,0,0,0,.1-.256c-.027-1.174-.243-7.112-1.8-8.692a.79.79,0,0,0-.588-.289h-.307c-.135,0-.266,0-.4,0a3.587,3.587,0,0,1-3.169-1.338.722.722,0,1,1,1.094-.944,2.259,2.259,0,0,0,2.145.829l.634,0a2.241,2.241,0,0,1,1.612.719,4.431,4.431,0,0,1,.806,1.237.352.352,0,0,0,.319.2h4.674a.353.353,0,0,0,.352-.354v-4.318a.721.721,0,1,1,1.442,0v4.318a.353.353,0,0,0,.352.354h3.215a.353.353,0,0,0,.352-.361c-.07-3.7-.71-7.845-1.757-8.242a.352.352,0,0,0-.125-.023l-.383.006c-.127,0-.251.006-.377.006a2.954,2.954,0,0,1-2.546-1.16.731.731,0,0,1,.076-1.024.721.721,0,0,1,1.018.076,1.543,1.543,0,0,0,1.448.657c.106,0,.224,0,.358,0l.421,0a1.871,1.871,0,0,1,1.35.6c1.505,1.526,2,6.449,1.966,10.2a.725.725,0,0,1-.721.719H162.544a.352.352,0,0,0-.277.135.356.356,0,0,0-.066.3,35.052,35.052,0,0,1,.715,7.479.726.726,0,0,1-.721.718Z" transform="translate(-140 -194.514)" fill="#21b8ec"/>
      </g>
    </g>
  </g>
</svg>
