<svg xmlns="http://www.w3.org/2000/svg" width="62" height="62" viewBox="0 0 62 62">
  <g id="Сгруппировать_16241" data-name="Сгруппировать 16241" transform="translate(-929 -1742)">
    <circle id="Эллипс_11" data-name="Эллипс 11" cx="31" cy="31" r="31" transform="translate(929 1742)" fill="#21b8ec"/>
    <g id="Сгруппировать_14559" data-name="Сгруппировать 14559" transform="translate(728 1461)">
      <path id="Контур_88493" data-name="Контур 88493" d="M232,292a20,20,0,0,0-20,20v1h-2l5,7,4-7h-2v-1a15,15,0,0,1,27.691-8" fill="none" stroke="#fff" stroke-miterlimit="10" stroke-width="1"/>
      <path id="Контур_88494" data-name="Контур 88494" d="M242.08,294.722a20.064,20.064,0,0,1,2,1.339" fill="none" stroke="#fff" stroke-miterlimit="10" stroke-width="1"/>
      <path id="Контур_88495" data-name="Контур 88495" d="M238.1,292.949a19.615,19.615,0,0,1,1.914.724" fill="none" stroke="#fff" stroke-miterlimit="10" stroke-width="1"/>
      <path id="Контур_88496" data-name="Контур 88496" d="M234.045,292.1q.945.1,1.863.279" fill="none" stroke="#fff" stroke-miterlimit="10" stroke-width="1"/>
      <path id="Контур_88497" data-name="Контур 88497" d="M232.083,332A19.929,19.929,0,0,0,252,312v-1h2l-5-7-4,7h2v1a14.89,14.89,0,0,1-27.518,8" fill="none" stroke="#fff" stroke-miterlimit="10" stroke-width="1"/>
      <path id="Контур_88498" data-name="Контур 88498" d="M222,329.278a20.168,20.168,0,0,1-2-1.339" fill="none" stroke="#fff" stroke-miterlimit="10" stroke-width="1"/>
      <path id="Контур_88499" data-name="Контур 88499" d="M225.978,331.051a19.733,19.733,0,0,1-1.915-.724" fill="none" stroke="#fff" stroke-miterlimit="10" stroke-width="1"/>
      <path id="Контур_88500" data-name="Контур 88500" d="M230.038,331.9q-.945-.1-1.864-.279" fill="none" stroke="#fff" stroke-miterlimit="10" stroke-width="1"/>
      <path id="Контур_88501" data-name="Контур 88501" d="M230,307h4a2,2,0,0,1,2,2v1a2,2,0,0,1-2,2" fill="none" stroke="#fff" stroke-miterlimit="10" stroke-width="1"/>
      <path id="Прямоугольник_49" data-name="Прямоугольник 49" d="M0,0H4A2,2,0,0,1,6,2V3A2,2,0,0,1,4,5H0A0,0,0,0,1,0,5V0A0,0,0,0,1,0,0Z" transform="translate(230 312)" fill="none" stroke="#fff" stroke-miterlimit="10" stroke-width="1"/>
      <line id="Линия_47" data-name="Линия 47" x2="3" transform="translate(227 317)" fill="none" stroke="#fff" stroke-miterlimit="10" stroke-width="1"/>
      <line id="Линия_48" data-name="Линия 48" x2="3" transform="translate(227 307)" fill="none" stroke="#fff" stroke-miterlimit="10" stroke-width="1"/>
      <line id="Линия_49" data-name="Линия 49" y2="8" transform="translate(230 304)" fill="none" stroke="#fff" stroke-miterlimit="10" stroke-width="1"/>
      <line id="Линия_50" data-name="Линия 50" y2="3" transform="translate(230 317)" fill="none" stroke="#fff" stroke-miterlimit="10" stroke-width="1"/>
      <line id="Линия_51" data-name="Линия 51" y2="3" transform="translate(233 317)" fill="none" stroke="#fff" stroke-miterlimit="10" stroke-width="1"/>
      <line id="Линия_52" data-name="Линия 52" y2="3" transform="translate(233 304)" fill="none" stroke="#fff" stroke-miterlimit="10" stroke-width="1"/>
    </g>
  </g>
</svg>
