<svg xmlns="http://www.w3.org/2000/svg" width="62" height="62" viewBox="0 0 62 62">
  <g id="Сгруппировать_16245" data-name="Сгруппировать 16245" transform="translate(-1343 -2009.5)">
    <circle id="Эллипс_15" data-name="Эллипс 15" cx="31" cy="31" r="31" transform="translate(1343 2009.5)" fill="#21b8ec"/>
    <g id="Сгруппировать_14558" data-name="Сгруппировать 14558" transform="translate(817.116 1552.102)">
      <rect id="Прямоугольник_48" data-name="Прямоугольник 48" width="28.856" height="39.791" transform="translate(542.859 468.398)" fill="none" stroke="#fff" stroke-linejoin="round" stroke-width="1"/>
      <g id="Сгруппировать_14557" data-name="Сгруппировать 14557" transform="translate(551.84 479.853)">
        <path id="Контур_88491" data-name="Контур 88491" d="M571.775,495c-.017.007-.017.028,0,.061.016-.034.017-.054,0-.061Zm0,.061c-.29.594-5.45,5.275-5.447,8.99,0,2.783,1.8,6.077,5.447,6.108,3.652-.031,5.446-3.325,5.446-6.108,0-3.715-5.158-8.4-5.446-8.99Z" transform="translate(-566.328 -495.001)" fill="none" stroke="#fff" stroke-width="1"/>
        <path id="Контур_88492" data-name="Контур 88492" d="M575.761,519.11c-1.992-.035-2.432-2.245-2.433-3.1" transform="translate(-570.314 -506.965)" fill="none" stroke="#fff" stroke-linejoin="round" stroke-width="1"/>
      </g>
      <line id="Линия_37" data-name="Линия 37" x2="32.805" transform="translate(540.884 468.398)" fill="none" stroke="#fff" stroke-linejoin="round" stroke-width="1"/>
      <line id="Линия_38" data-name="Линия 38" x2="32.805" transform="translate(540.884 508.19)" fill="none" stroke="#fff" stroke-linejoin="round" stroke-width="1"/>
      <line id="Линия_39" data-name="Линия 39" x2="19.44" transform="translate(554.249 475.689)" fill="none" stroke="#fff" stroke-linejoin="round" stroke-width="1"/>
      <line id="Линия_40" data-name="Линия 40" x2="10.935" transform="translate(540.884 475.689)" fill="none" stroke="#fff" stroke-linejoin="round" stroke-width="1"/>
      <line id="Линия_41" data-name="Линия 41" y2="17.469" transform="translate(568.021 478.201)" fill="none" stroke="#fff" stroke-linejoin="round" stroke-width="1"/>
      <line id="Линия_42" data-name="Линия 42" y2="4.55" transform="translate(568.02 468.943)" fill="none" stroke="#fff" stroke-linejoin="round" stroke-width="1"/>
      <line id="Линия_43" data-name="Линия 43" y2="4.55" transform="translate(568.02 502.099)" fill="none" stroke="#fff" stroke-linejoin="round" stroke-width="1"/>
      <line id="Линия_44" data-name="Линия 44" x2="6.459" transform="translate(565.651 501.668)" fill="none" stroke="#fff" stroke-linejoin="round" stroke-width="1"/>
      <line id="Линия_45" data-name="Линия 45" x2="19.44" transform="translate(554.249 499.533)" fill="none" stroke="#fff" stroke-linejoin="round" stroke-width="1"/>
      <line id="Линия_46" data-name="Линия 46" x2="10.935" transform="translate(540.884 499.533)" fill="none" stroke="#fff" stroke-linejoin="round" stroke-width="1"/>
    </g>
  </g>
</svg>
