<svg id="Group_16260" data-name="Group 16260" xmlns="http://www.w3.org/2000/svg" xmlns:xlink="http://www.w3.org/1999/xlink" width="142.171" height="41.504" viewBox="0 0 142.171 41.504">
  <defs>
    <clipPath id="clip-path">
      <rect id="Rectangle_7172" data-name="Rectangle 7172" width="142.171" height="41.504" fill="none"/>
    </clipPath>
    <clipPath id="clip-path-2">
      <path id="Path_94177" data-name="Path 94177" d="M0,28.053s.073,0,.208,0H0m14.906.228H13.837l.865.628-.33,1.017.865-.628.865.628-.33-1.017.865-.628H15.566l-.33-1.017Zm5.863-1.059H19.432l1.081.786L20.1,29.279l1.081-.785,1.081.785-.413-1.271,1.081-.786H21.594l-.413-1.271Zm5.611-2h-1.67l1.351.982L25.545,27.8l1.351-.982,1.351.982-.516-1.589,1.351-.982h-1.67L26.9,23.637Zm5.7-3.677H29.989l1.689,1.227-.645,1.986,1.689-1.227,1.689,1.227-.645-1.986,1.689-1.227H33.367l-.645-1.986Zm5.878-4.685h-2.61L37.457,18.4l-.807,2.482,2.111-1.534,2.111,1.534L40.067,18.4l2.111-1.534h-2.61l-.806-2.482ZM25.783,9.837l3.483,2.178C20.663,27.336,2.353,28.025.208,28.053,32.863,27.971,38.762,8.7,38.762,8.7ZM6.918,1.891V25.78H8.152c2.545-1.02,6.126-2.7,8.555-3.866H11.174V15.573h10.12V11.707H11.174V5.713H22.6V1.891Z" transform="translate(0 -1.891)" fill="none"/>
    </clipPath>
    <linearGradient id="linear-gradient" y1="1.47" x2="0.004" y2="1.47" gradientUnits="objectBoundingBox">
      <stop offset="0" stop-color="#21b8ec"/>
      <stop offset="1" stop-color="#2da1db"/>
    </linearGradient>
  </defs>
  <g id="Group_16234" data-name="Group 16234">
    <g id="Group_16233" data-name="Group 16233" clip-path="url(#clip-path)">
      <path id="Path_94161" data-name="Path 94161" d="M182.491,16.918a14.518,14.518,0,0,1-.13,2.041,3.977,3.977,0,0,1-1.824,2.411,6.851,6.851,0,0,1-3.605.847,6.663,6.663,0,0,1-3.518-.847,3.805,3.805,0,0,1-1.781-2.411,9.55,9.55,0,0,1-.217-2.041V1.89H167.2V17.136a13.844,13.844,0,0,0,.586,4.083,6.712,6.712,0,0,0,2.736,3.431q2.15,1.521,6.407,1.52,4.343,0,6.493-1.52a6.712,6.712,0,0,0,2.736-3.431,13.844,13.844,0,0,0,.586-4.083V1.89h-4.257Z" transform="translate(-140.304 -1.586)" fill="#1d1d1b"/>
      <path id="Path_94162" data-name="Path 94162" d="M338.465,8.926q0-7.036-9.816-7.036h-7.818V25.779h4.257V16.441q1.3.088,1.911.087,1.215,0,1.868-.043l5.473,9.3h4.821l-5.994-9.99q5.3-1.78,5.3-6.863m-11.293,3.779a17.5,17.5,0,0,1-2.085-.13V5.712h3.127a11.454,11.454,0,0,1,4.365.673,2.581,2.581,0,0,1,1.585,2.628,2.867,2.867,0,0,1-1.846,2.975,14.7,14.7,0,0,1-5.147.717" transform="translate(-269.219 -1.586)" fill="#1d1d1b"/>
      <path id="Path_94163" data-name="Path 94163" d="M469.835,1.477A12.141,12.141,0,0,0,463.862,0a11.848,11.848,0,0,0-5.994,1.542,11.205,11.205,0,0,0-4.257,4.322,12.8,12.8,0,0,0-1.564,6.385,12.778,12.778,0,0,0,1.651,6.646,10.909,10.909,0,0,0,4.322,4.191,12.042,12.042,0,0,0,5.712,1.412,11.871,11.871,0,0,0,6.1-1.585,11.2,11.2,0,0,0,4.257-4.43,13.319,13.319,0,0,0,1.542-6.45,12.557,12.557,0,0,0-1.564-6.341,10.867,10.867,0,0,0-4.235-4.213m.413,15.419a6.593,6.593,0,0,1-2.715,2.736,7.57,7.57,0,0,1-3.54.869,7.367,7.367,0,0,1-3.866-1.042,7.263,7.263,0,0,1-2.736-2.975,9.65,9.65,0,0,1-1-4.5,8.961,8.961,0,0,1,1.042-4.539,6.575,6.575,0,0,1,2.693-2.65,7.686,7.686,0,0,1,3.562-.847,7.97,7.97,0,0,1,3.605.869,7.021,7.021,0,0,1,2.867,2.736,8.937,8.937,0,0,1,1.129,4.691,9.429,9.429,0,0,1-1.042,4.648" transform="translate(-379.327 0)" fill="#1d1d1b"/>
      <path id="Path_94164" data-name="Path 94164" d="M634.281,1.89h-7.818V25.779h4.257V16.441q.3.044.869.087t1.042.043a19.665,19.665,0,0,0,8.274-1.585q3.235-1.541,3.192-6.059,0-7.036-9.816-7.036m3.67,10.1a14.7,14.7,0,0,1-5.147.717l-1-.043a9.407,9.407,0,0,0-1.086-.087V5.712h3.127a11.454,11.454,0,0,1,4.365.673A2.581,2.581,0,0,1,639.8,9.013a2.867,2.867,0,0,1-1.846,2.975" transform="translate(-525.684 -1.586)" fill="#1d1d1b"/>
      <path id="Path_94165" data-name="Path 94165" d="M759.458,1.89h-4.126l-8.991,23.889h4.17l2.389-6.3h8.817l2.433,6.3h4.3Zm-5.212,13.769,3.04-8.948,3.041,8.948Z" transform="translate(-626.278 -1.586)" fill="#1d1d1b"/>
      <path id="Path_94166" data-name="Path 94166" d="M43,194.94H50.86v1.016H47.5v8.965h-1.2v-8.965H43Z" transform="translate(-36.085 -163.58)" fill="#1d1d1b"/>
      <path id="Path_94167" data-name="Path 94167" d="M120.446,200.783h-1.905v4.138h-1.2v-9.981h3.14a8.154,8.154,0,0,1,1.025.046q.317.045.626.118a2.685,2.685,0,0,1,1.361,1.025,3.031,3.031,0,0,1,.49,1.751,2.7,2.7,0,0,1-.626,1.742,3.11,3.11,0,0,1-1.66,1l2.831,4.3h-1.361Zm.962-1.18a1.775,1.775,0,0,0,1-.554,1.809,1.809,0,0,0,.381-1.243,1.693,1.693,0,0,0-.454-1.252,1.916,1.916,0,0,0-1.216-.526,6.569,6.569,0,0,0-1.27-.073h-1.307v3.72q.726.055,1.307.054a7.94,7.94,0,0,0,1.561-.127" transform="translate(-98.466 -163.579)" fill="#1d1d1b"/>
      <path id="Path_94168" data-name="Path 94168" d="M192.759,204.921h-1.343L190.472,202h-3.811l-.944,2.922h-1.252l3.412-9.981h1.452Zm-4.21-8.729-1.543,4.773h3.121Z" transform="translate(-154.79 -163.58)" fill="#1d1d1b"/>
      <path id="Path_94169" data-name="Path 94169" d="M265.711,204.921H262.19V194.94h3.521a4.9,4.9,0,0,1,2.522.608,4.146,4.146,0,0,1,1.6,1.679,6.12,6.12,0,0,1,.581,2.7,5.653,5.653,0,0,1-.581,2.686,4.053,4.053,0,0,1-1.588,1.706,4.949,4.949,0,0,1-2.532.6m-2.323-1.053h2.232a3.516,3.516,0,0,0,1.951-.481,3.251,3.251,0,0,0,1.152-1.352,4.915,4.915,0,0,0,.363-2.105,4.978,4.978,0,0,0-.417-2.069,3.57,3.57,0,0,0-1.071-1.343,3.377,3.377,0,0,0-1.978-.544h-2.232Z" transform="translate(-220.012 -163.58)" fill="#1d1d1b"/>
      <path id="Path_94170" data-name="Path 94170" d="M342.061,204.921V194.94H347.9v1.016h-4.646v3.285h4.283v1.035h-4.283v3.593H347.9v1.053Z" transform="translate(-287.034 -163.58)" fill="#1d1d1b"/>
      <path id="Path_94171" data-name="Path 94171" d="M455.954,194.563l-.345.98a9.815,9.815,0,0,0-1.152-.318,6.282,6.282,0,0,0-1.207-.1,4.666,4.666,0,0,0-2.214.436,3.211,3.211,0,0,0-1.279,1.406,4.918,4.918,0,0,0-.445,2.169,4.326,4.326,0,0,0,.508,2.132,3.673,3.673,0,0,0,1.379,1.425,4.575,4.575,0,0,0,2.232.526,6.656,6.656,0,0,0,2.341-.49l.29.944a6.681,6.681,0,0,1-2.994.653,5.439,5.439,0,0,1-2.105-.4,4.908,4.908,0,0,1-1.615-1.053,5.142,5.142,0,0,1-1.361-3.72,6.078,6.078,0,0,1,.345-2.114,4.222,4.222,0,0,1,.962-1.552,4.466,4.466,0,0,1,1.561-1.034,5.545,5.545,0,0,1,2.051-.417,9.027,9.027,0,0,1,1.67.127q.436.091,1.379.4" transform="translate(-375.92 -162.822)" fill="#1d1d1b"/>
      <path id="Path_94172" data-name="Path 94172" d="M528.478,204.921h-1.343L526.191,202H522.38l-.944,2.922h-1.252l3.412-9.981h1.452Zm-4.21-8.729-1.543,4.773h3.121Z" transform="translate(-436.502 -163.58)" fill="#1d1d1b"/>
      <path id="Path_94173" data-name="Path 94173" d="M604.017,199.549a2.6,2.6,0,0,1-1.316.962,5.269,5.269,0,0,1-1.052.2,12.483,12.483,0,0,1-1.343.072q-.762,0-1.2-.036v4.174h-1.2v-9.981h3.14a8.153,8.153,0,0,1,1.025.046q.317.045.626.118a2.685,2.685,0,0,1,1.361,1.025,3.031,3.031,0,0,1,.49,1.751,2.967,2.967,0,0,1-.535,1.67m-2.042.054a1.776,1.776,0,0,0,1-.554,1.809,1.809,0,0,0,.381-1.243,1.693,1.693,0,0,0-.454-1.252,1.916,1.916,0,0,0-1.216-.526,6.569,6.569,0,0,0-1.27-.073h-1.307v3.72q.726.055,1.307.054a7.94,7.94,0,0,0,1.561-.127" transform="translate(-501.725 -163.579)" fill="#1d1d1b"/>
      <rect id="Rectangle_7171" data-name="Rectangle 7171" width="1.18" height="9.981" transform="translate(107.51 31.36)" fill="#1d1d1b"/>
      <path id="Path_94174" data-name="Path 94174" d="M702.147,194.94H710v1.016h-3.357v8.965h-1.2v-8.965h-3.3Z" transform="translate(-589.193 -163.58)" fill="#1d1d1b"/>
      <path id="Path_94175" data-name="Path 94175" d="M779.028,204.921h-1.343L776.741,202H772.93l-.944,2.922h-1.252l3.412-9.981H775.6Zm-4.21-8.729-1.543,4.773H776.4Z" transform="translate(-646.747 -163.58)" fill="#1d1d1b"/>
      <path id="Path_94176" data-name="Path 94176" d="M848.461,194.94h1.2v8.929h4.482v1.053h-5.68Z" transform="translate(-711.969 -163.58)" fill="#1d1d1b"/>
    </g>
  </g>
  <g id="Group_16236" data-name="Group 16236" transform="translate(0 0.304)">
    <g id="Group_16235" data-name="Group 16235" clip-path="url(#clip-path-2)">
      <rect id="Rectangle_7173" data-name="Rectangle 7173" width="42.178" height="28.036" transform="translate(0 0)" fill="url(#linear-gradient)"/>
    </g>
  </g>
</svg>
