<svg xmlns="http://www.w3.org/2000/svg" width="62" height="62" viewBox="0 0 62 62">
  <g id="Сгруппировать_16240" data-name="Сгруппировать 16240" transform="translate(-515 -1742)">
    <circle id="Эллипс_10" data-name="Эллипс 10" cx="31" cy="31" r="31" transform="translate(515 1742)" fill="#21b8ec"/>
    <g id="Сгруппировать_14556" data-name="Сгруппировать 14556" transform="translate(-2065.592 651.496)">
      <g id="Сгруппировать_14554" data-name="Сгруппировать 14554" transform="translate(2597.295 1100.504)">
        <g id="Сгруппировать_14552" data-name="Сгруппировать 14552" transform="translate(0.416 0)">
          <path id="Контур_88485" data-name="Контур 88485" d="M2842.8,1149.843a15.575,15.575,0,0,1,1.107,2.015" transform="translate(-2814.474 -1142.575)" fill="none" stroke="#fff" stroke-miterlimit="10" stroke-width="1"/>
          <path id="Контур_88486" data-name="Контур 88486" d="M2672.98,1104.515a14.119,14.119,0,0,0-5.986-1.391,13.521,13.521,0,0,0-2.028.136,13.335,13.335,0,0,0-1.965.427,13.458,13.458,0,0,0-3.585,1.674,13.194,13.194,0,0,0-1.552,1.2s2.326,1.458,2.527,1.6l-9.9,1.866,4.135-9.186c.092.232.947,2.857.947,2.857s1.38-.929,2.112-1.31a16.7,16.7,0,0,1,4.631-1.607,16,16,0,0,1,2.418-.268,16.268,16.268,0,0,1,2.415.09,16.438,16.438,0,0,1,2.358.441,16.253,16.253,0,0,1,2.252.774,15.775,15.775,0,0,1,4,2.472,15.979,15.979,0,0,1,1.664,1.635" transform="translate(-2650.495 -1100.504)" fill="none" stroke="#fff" stroke-miterlimit="10" stroke-width="1"/>
        </g>
        <g id="Сгруппировать_14553" data-name="Сгруппировать 14553" transform="translate(0 31.752)">
          <path id="Контур_88487" data-name="Контур 88487" d="M2648.762,1318.847a15.371,15.371,0,0,1-1.09-2.022" transform="translate(-2647.672 -1316.712)" fill="none" stroke="#fff" stroke-miterlimit="10" stroke-width="1"/>
          <path id="Контур_88488" data-name="Контур 88488" d="M2668.929,1321.477a13.961,13.961,0,0,0,5.97,1.429,13.5,13.5,0,0,0,2.027-.126,13.177,13.177,0,0,0,1.965-.411,13.429,13.429,0,0,0,3.6-1.649c.55-.359,1.574-1.2,1.574-1.2-.208-.138-2.352-1.449-2.553-1.593l9.9-1.866-4.123,9.187c-.092-.232-.953-2.854-.953-2.854s-1.393.929-2.126,1.306a16.634,16.634,0,0,1-4.64,1.574,16.756,16.756,0,0,1-4.829.149,16.313,16.313,0,0,1-4.6-1.24,15.932,15.932,0,0,1-2.093-1.1,15.675,15.675,0,0,1-1.9-1.391,15.869,15.869,0,0,1-1.656-1.643" transform="translate(-2662.008 -1316.058)" fill="none" stroke="#fff" stroke-miterlimit="10" stroke-width="1"/>
        </g>
      </g>
      <circle id="Эллипс_16" data-name="Эллипс 16" cx="7.466" cy="7.466" r="7.466" transform="translate(2618.776 1127.938) rotate(-85.269)" fill="none" stroke="#fff" stroke-miterlimit="10" stroke-width="1"/>
      <path id="Контур_88489" data-name="Контур 88489" d="M2830.109,1218.176a4.031,4.031,0,0,1-5.9,0,4.529,4.529,0,0,1,0-6.188,4.031,4.031,0,0,1,5.9,0" transform="translate(-199.872 -93.968)" fill="none" stroke="#fff" stroke-width="1"/>
      <line id="Линия_33" data-name="Линия 33" x2="6.279" transform="translate(2621.894 1120.271)" fill="none" stroke="#fff" stroke-width="1"/>
      <line id="Линия_34" data-name="Линия 34" x2="6.279" transform="translate(2621.894 1121.975)" fill="none" stroke="#fff" stroke-width="1"/>
      <circle id="Эллипс_17" data-name="Эллипс 17" cx="7.466" cy="7.466" r="7.466" transform="matrix(0.23, -0.973, 0.973, 0.23, 2588.592, 1126.664)" fill="none" stroke="#fff" stroke-miterlimit="10" stroke-width="1"/>
      <g id="Сгруппировать_14555" data-name="Сгруппировать 14555" transform="translate(2594.836 1115.641)">
        <path id="Контур_88490" data-name="Контур 88490" d="M2630.98,1215.881a2.326,2.326,0,0,0,2.32,2.319h.837a2.326,2.326,0,0,0,2.319-2.319h0a2.326,2.326,0,0,0-2.319-2.319h-.837a2.326,2.326,0,0,1-2.32-2.319h0a2.326,2.326,0,0,1,2.32-2.319h.837a2.326,2.326,0,0,1,2.319,2.319" transform="translate(-2630.98 -1208.089)" fill="none" stroke="#fff" stroke-width="1"/>
        <line id="Линия_35" data-name="Линия 35" y2="10.944" transform="translate(2.241 0)" fill="none" stroke="#fff" stroke-miterlimit="10" stroke-width="1"/>
        <line id="Линия_36" data-name="Линия 36" y2="10.944" transform="translate(3.234 0)" fill="none" stroke="#fff" stroke-miterlimit="10" stroke-width="1"/>
      </g>
    </g>
  </g>
</svg>
