<svg xmlns="http://www.w3.org/2000/svg" xmlns:xlink="http://www.w3.org/1999/xlink" width="148.995" height="43.497" viewBox="0 0 148.995 43.497">
  <defs>
    <linearGradient id="linear-gradient" y1="0.5" x2="1" y2="0.5" gradientUnits="objectBoundingBox">
      <stop offset="0" stop-color="#21b8ec"/>
      <stop offset="1" stop-color="#2da1db"/>
    </linearGradient>
  </defs>
  <g id="Сгруппировать_16252" data-name="Сгруппировать 16252" transform="translate(-225.03 -75.222)">
    <g id="Сгруппировать_16242" data-name="Сгруппировать 16242" transform="translate(253.219 75.222)">
      <path id="Контур_94180" data-name="Контур 94180" d="M408.254,92.862A15.218,15.218,0,0,1,408.117,95a4.168,4.168,0,0,1-1.912,2.527,7.181,7.181,0,0,1-3.778.887,6.985,6.985,0,0,1-3.687-.887A3.989,3.989,0,0,1,396.874,95a10.017,10.017,0,0,1-.228-2.139V77.112h-4.415V93.089a14.509,14.509,0,0,0,.615,4.279,7.036,7.036,0,0,0,2.868,3.6q2.253,1.594,6.714,1.593,4.551,0,6.805-1.593a7.035,7.035,0,0,0,2.868-3.6,14.509,14.509,0,0,0,.615-4.279V77.112h-4.461Z" transform="translate(-392.231 -76.793)" fill="#fff"/>
      <path id="Контур_94181" data-name="Контур 94181" d="M564.341,84.486q0-7.374-10.287-7.374H545.86v25.036h4.461V92.361q1.366.092,2,.091,1.274,0,1.957-.046l5.735,9.741h5.053l-6.282-10.469Q564.341,89.812,564.341,84.486Zm-11.835,3.96a18.339,18.339,0,0,1-2.185-.137V81.118H553.6a12.005,12.005,0,0,1,4.575.706,2.705,2.705,0,0,1,1.661,2.754A3,3,0,0,1,557.9,87.7,15.4,15.4,0,0,1,552.506,88.446Z" transform="translate(-519.96 -76.793)" fill="#fff"/>
      <path id="Контур_94182" data-name="Контур 94182" d="M695.718,76.77a12.723,12.723,0,0,0-6.259-1.548,12.42,12.42,0,0,0-6.282,1.616,11.745,11.745,0,0,0-4.461,4.529,14.685,14.685,0,0,0,.091,13.656,11.434,11.434,0,0,0,4.529,4.393,12.621,12.621,0,0,0,5.986,1.479,12.444,12.444,0,0,0,6.4-1.661,11.739,11.739,0,0,0,4.461-4.643,13.96,13.96,0,0,0,1.616-6.76,13.16,13.16,0,0,0-1.639-6.646A11.391,11.391,0,0,0,695.718,76.77Zm.432,16.159A6.908,6.908,0,0,1,693.3,95.8a7.933,7.933,0,0,1-3.71.91,7.72,7.72,0,0,1-4.051-1.092,7.613,7.613,0,0,1-2.868-3.118,10.117,10.117,0,0,1-1.047-4.711,9.39,9.39,0,0,1,1.092-4.757,6.892,6.892,0,0,1,2.822-2.777,8.058,8.058,0,0,1,3.733-.887,8.353,8.353,0,0,1,3.778.91,7.357,7.357,0,0,1,3,2.868,9.364,9.364,0,0,1,1.183,4.916A9.883,9.883,0,0,1,696.15,92.929Z" transform="translate(-629.055 -75.222)" fill="#fff"/>
      <path id="Контур_94183" data-name="Контур 94183" d="M859.687,77.112h-8.194v25.036h4.461V92.361q.318.046.91.091t1.092.045a20.607,20.607,0,0,0,8.672-1.661q3.39-1.615,3.346-6.35Q869.974,77.112,859.687,77.112ZM863.533,87.7a15.4,15.4,0,0,1-5.394.751l-1.047-.046a9.865,9.865,0,0,0-1.138-.091V81.118h3.277a12.006,12.006,0,0,1,4.575.706,2.705,2.705,0,0,1,1.661,2.754A3,3,0,0,1,863.533,87.7Z" transform="translate(-774.066 -76.793)" fill="#fff"/>
      <path id="Контур_94184" data-name="Контур 94184" d="M985.117,77.112h-4.324l-9.422,25.036h4.37l2.5-6.6h9.24l2.549,6.6h4.506Zm-5.462,14.43,3.186-9.377,3.187,9.377Z" transform="translate(-873.733 -76.793)" fill="#fff"/>
    </g>
    <g id="Сгруппировать_16243" data-name="Сгруппировать 16243" transform="translate(232.28 107.935)">
      <path id="Контур_94185" data-name="Контур 94185" d="M268.032,270.162h8.235v1.065h-3.518v9.4h-1.255v-9.4h-3.462Z" transform="translate(-268.032 -270.01)" fill="#fff"/>
      <path id="Контур_94186" data-name="Контур 94186" d="M345.625,276.286h-2v4.336h-1.255v-10.46h3.29a8.547,8.547,0,0,1,1.075.048q.333.048.656.124a2.812,2.812,0,0,1,1.426,1.074,3.175,3.175,0,0,1,.514,1.835,2.834,2.834,0,0,1-.656,1.826,3.261,3.261,0,0,1-1.74,1.046l2.967,4.507h-1.426Zm1.008-1.236a1.861,1.861,0,0,0,1.046-.58,1.9,1.9,0,0,0,.4-1.3,1.775,1.775,0,0,0-.476-1.312,2.006,2.006,0,0,0-1.274-.551,6.878,6.878,0,0,0-1.331-.076h-1.369v3.9q.76.057,1.369.057A8.333,8.333,0,0,0,346.633,275.05Z" transform="translate(-329.84 -270.01)" fill="#fff"/>
      <path id="Контур_94187" data-name="Контур 94187" d="M418.187,280.622h-1.407l-.989-3.062H411.8l-.989,3.062H409.5l3.575-10.46h1.522Zm-4.412-9.148-1.616,5h3.271Z" transform="translate(-385.646 -270.01)" fill="#fff"/>
      <path id="Контур_94188" data-name="Контур 94188" d="M490.91,280.622h-3.69v-10.46h3.69a5.136,5.136,0,0,1,2.643.637,4.346,4.346,0,0,1,1.674,1.759,6.414,6.414,0,0,1,.609,2.834,5.924,5.924,0,0,1-.609,2.815,4.248,4.248,0,0,1-1.664,1.788A5.187,5.187,0,0,1,490.91,280.622Zm-2.434-1.1h2.339a3.685,3.685,0,0,0,2.044-.5,3.405,3.405,0,0,0,1.208-1.417,5.15,5.15,0,0,0,.38-2.206,5.217,5.217,0,0,0-.437-2.168,3.741,3.741,0,0,0-1.122-1.407,3.539,3.539,0,0,0-2.073-.57h-2.339Z" transform="translate(-450.267 -270.01)" fill="#fff"/>
      <path id="Контур_94189" data-name="Контур 94189" d="M567.091,280.622v-10.46h6.124v1.065h-4.869v3.442h4.488v1.084h-4.488v3.766h4.869v1.1Z" transform="translate(-516.672 -270.01)" fill="#fff"/>
      <path id="Контур_94190" data-name="Контур 94190" d="M681.366,269.811,681,270.839a10.245,10.245,0,0,0-1.208-.333,6.567,6.567,0,0,0-1.265-.1,4.89,4.89,0,0,0-2.32.457,3.366,3.366,0,0,0-1.341,1.474,5.154,5.154,0,0,0-.466,2.273,4.531,4.531,0,0,0,.533,2.235,3.85,3.85,0,0,0,1.445,1.493,4.794,4.794,0,0,0,2.339.551,6.975,6.975,0,0,0,2.454-.514l.3.989a7,7,0,0,1-3.138.685,5.7,5.7,0,0,1-2.206-.418,5.145,5.145,0,0,1-1.693-1.1,5.388,5.388,0,0,1-1.426-3.9,6.373,6.373,0,0,1,.361-2.216,4.426,4.426,0,0,1,1.008-1.626,4.679,4.679,0,0,1,1.636-1.084,5.812,5.812,0,0,1,2.149-.437,9.465,9.465,0,0,1,1.75.133Q680.377,269.489,681.366,269.811Z" transform="translate(-604.74 -269.26)" fill="#fff"/>
      <path id="Контур_94191" data-name="Контур 94191" d="M753.907,280.622H752.5l-.989-3.062h-3.994l-.989,3.062h-1.312l3.575-10.46h1.522Zm-4.412-9.148-1.617,5h3.271Z" transform="translate(-664.766 -270.01)" fill="#fff"/>
      <path id="Контур_94192" data-name="Контур 94192" d="M829.34,274.993A2.722,2.722,0,0,1,827.961,276a5.5,5.5,0,0,1-1.1.209,13.045,13.045,0,0,1-1.407.076q-.8,0-1.255-.038v4.374H822.94v-10.46h3.29a8.547,8.547,0,0,1,1.075.048q.333.048.656.124a2.811,2.811,0,0,1,1.426,1.074,3.175,3.175,0,0,1,.514,1.835A3.109,3.109,0,0,1,829.34,274.993Zm-2.14.057a1.862,1.862,0,0,0,1.046-.58,1.9,1.9,0,0,0,.4-1.3,1.776,1.776,0,0,0-.475-1.312,2.007,2.007,0,0,0-1.274-.551,6.879,6.879,0,0,0-1.331-.076H824.2v3.9q.76.057,1.369.057A8.333,8.333,0,0,0,827.2,275.05Z" transform="translate(-729.388 -270.01)" fill="#fff"/>
      <path id="Контур_94193" data-name="Контур 94193" d="M893.334,270.162h1.236v10.46h-1.236Z" transform="translate(-787.914 -270.01)" fill="#fff"/>
      <path id="Контур_94194" data-name="Контур 94194" d="M927.176,270.162h8.235v1.065h-3.518v9.4h-1.255v-9.4h-3.462Z" transform="translate(-816.05 -270.01)" fill="#fff"/>
      <path id="Контур_94195" data-name="Контур 94195" d="M1004.456,280.622h-1.407l-.989-3.062h-3.994l-.989,3.062h-1.312l3.576-10.46h1.522Zm-4.412-9.148-1.617,5h3.271Z" transform="translate(-873.075 -270.01)" fill="#fff"/>
      <path id="Контур_94196" data-name="Контур 94196" d="M1073.49,270.162h1.255v9.357h4.7v1.1h-5.953Z" transform="translate(-937.697 -270.01)" fill="#fff"/>
    </g>
    <path id="Контур_94197" data-name="Контур 94197" d="M233.574,102.148H232.28V77.112h16.433v4.006H236.741V87.4h10.606v4.051H236.741V98.1h5.8C239.994,99.319,236.24,101.079,233.574,102.148Zm32.079-17.9-13.6,1.187,3.65,2.282c-9.017,16.057-28.205,16.779-30.453,16.808C259.471,104.444,265.653,84.253,265.653,84.253ZM225.03,104.531s.077,0,.219,0Zm44.2-11.728H266.5l-.845-2.6-.845,2.6h-2.735l2.213,1.608-.845,2.6,2.213-1.608,2.213,1.608-.845-2.6ZM260,97.713l-.676-2.081-.676,2.081h-2.188L258.229,99l-.676,2.081,1.77-1.286,1.77,1.286L260.417,99l1.77-1.286Zm-6.241,3.853-.541-1.665-.541,1.665h-1.75l1.416,1.029-.541,1.665,1.416-1.029,1.416,1.029-.541-1.665,1.416-1.029Zm-6.1,2.093-.433-1.332-.433,1.332h-1.4l1.133.823-.433,1.332,1.133-.823,1.133.823-.433-1.332,1.133-.823Zm-6.317,1.11L241,103.7l-.346,1.065h-1.12l.906.659-.346,1.065.906-.659.906.659-.346-1.065.906-.659Z" transform="translate(0 -1.571)" fill="url(#linear-gradient)"/>
  </g>
</svg>
