<svg xmlns="http://www.w3.org/2000/svg" width="62" height="62" viewBox="0 0 62 62">
  <g id="Сгруппировать_16243" data-name="Сгруппировать 16243" transform="translate(-515 -2009.5)">
    <circle id="Эллипс_13" data-name="Эллипс 13" cx="31" cy="31" r="31" transform="translate(515 2009.5)" fill="#21b8ec"/>
    <g id="Сгруппировать_14560" data-name="Сгруппировать 14560" transform="translate(354.8 1774.083)">
      <path id="Контур_88502" data-name="Контур 88502" d="M215.866,273.491l-1.739-6.1a1.035,1.035,0,0,0-.316-.494L196.368,251.77a1.026,1.026,0,0,0-.894-.222l-2.144.5-3.986-3.388a1.024,1.024,0,0,0-.894-.221l-10.216,2.342a1.028,1.028,0,0,0-.74.67l-1.686,5a1.015,1.015,0,0,0,.044.759l-6.173,1.415a1.035,1.035,0,0,0-.741.67l-1.685,5a1.014,1.014,0,0,0,.249,1.052l18.13,17.879a1.018,1.018,0,0,0,1.023.253l12.951-3.995a1.029,1.029,0,0,0,.682-1.258l-.017-.057.452.446a1.015,1.015,0,0,0,.72.3,1.059,1.059,0,0,0,.3-.044l13.438-4.121A1.027,1.027,0,0,0,215.866,273.491ZM176.4,256.651l1.686-5a.4.4,0,0,1,.285-.258l10.216-2.342a.385.385,0,0,1,.087-.01.4.4,0,0,1,.259.1l14.2,12.075a.394.394,0,0,1,.122.191l1.74,6.1a.4.4,0,0,1-.263.485l-12.951,3.995h0a.394.394,0,0,1-.395-.1L176.5,257.057A.391.391,0,0,1,176.4,256.651Zm23.017,22.23-12.951,3.995a.391.391,0,0,1-.4-.1L167.945,264.9a.394.394,0,0,1-.1-.406l1.687-5a.393.393,0,0,1,.285-.257l6.485-1.489,14.645,14.587a1.019,1.019,0,0,0,1.022.252h0l4.73-1.459,1.119.971a.394.394,0,0,1,.123.193l1.739,6.1A.394.394,0,0,1,199.421,278.881ZM215,274.148l-13.438,4.118a.391.391,0,0,1-.4-.1l-1.241-1.224-1.377-4.823a1.019,1.019,0,0,0-.316-.494l-.823-.714,2.849-.879.953.95a.35.35,0,0,1,.107.236l0,.088,0,.082.172,3.17.546-3.126a.363.363,0,0,1,.247-.283l9.26-2.976-9.529,2.22a.359.359,0,0,1-.326-.086l-.59-.537,3.819-1.178a1.028,1.028,0,0,0,.682-1.257l-1.74-6.1a1.021,1.021,0,0,0-.318-.5l-9.619-8.178,1.687-.4a.423.423,0,0,1,.088-.01.4.4,0,0,1,.255.094L213.4,267.368a.385.385,0,0,1,.121.19l1.739,6.1A.4.4,0,0,1,215,274.148Z" transform="translate(0 0)" fill="#fff" stroke="#fff" stroke-width="0.4"/>
      <path id="Контур_88503" data-name="Контур 88503" d="M207.912,343.489l-15.586-14.21,15.1,14.882a.362.362,0,0,1,.106.237l0,.087,0,.083h0l.171,3.17.547-3.127h0a.362.362,0,0,1,.246-.282l9.261-2.975-9.53,2.22A.362.362,0,0,1,207.912,343.489Z" transform="translate(-21.305 -68.566)" fill="#fff" stroke="#fff" stroke-width="0.4"/>
      <path id="Контур_88504" data-name="Контур 88504" d="M260.551,289.782l0,.087,0,.083h0l.171,3.17.547-3.127h0a.361.361,0,0,1,.246-.282l9.261-2.975-9.53,2.22a.362.362,0,0,1-.326-.085L248.58,277.708l11.865,11.838A.362.362,0,0,1,260.551,289.782Z" transform="translate(-69.005 -24.837)" fill="#fff" stroke="#fff" stroke-width="0.4"/>
    </g>
  </g>
</svg>
