<svg xmlns="http://www.w3.org/2000/svg" width="62" height="62" viewBox="0 0 62 62">
  <g id="Сгруппировать_16242" data-name="Сгруппировать 16242" transform="translate(-1343 -1742)">
    <circle id="Эллипс_12" data-name="Эллипс 12" cx="31" cy="31" r="31" transform="translate(1343 1742)" fill="#21b8ec"/>
    <g id="Сгруппировать_14549" data-name="Сгруппировать 14549" transform="translate(-314.01 181.7)">
      <path id="Контур_88483" data-name="Контур 88483" d="M1710.643,1739.494l-1.8,1.8-3.508-3.508.013,14.792,14.792.013-3.508-3.508,14.451-14.451" transform="translate(-28.08 -141.868)" fill="none" stroke="#fff" stroke-miterlimit="10" stroke-width="1"/>
      <line id="Линия_22" data-name="Линия 22" x1="9.919" y2="9.919" transform="translate(1683.761 1586.51)" fill="none" stroke="#fff" stroke-miterlimit="10" stroke-width="1"/>
      <line id="Линия_23" data-name="Линия 23" y1="3.428" x2="3.428" transform="translate(1693.085 1588.217)" fill="none" stroke="#fff" stroke-miterlimit="10" stroke-width="1"/>
      <line id="Линия_24" data-name="Линия 24" y1="5.284" x2="5.284" transform="translate(1693.441 1591.524)" fill="none" stroke="#fff" stroke-miterlimit="10" stroke-width="1"/>
      <line id="Линия_25" data-name="Линия 25" y1="5.814" x2="5.814" transform="translate(1685.756 1593.16)" fill="none" stroke="#fff" stroke-miterlimit="10" stroke-width="1"/>
      <line id="Линия_26" data-name="Линия 26" y1="4.196" x2="4.196" transform="translate(1687.497 1598.556)" fill="none" stroke="#fff" stroke-miterlimit="10" stroke-width="1"/>
      <path id="Контур_88484" data-name="Контур 88484" d="M1691.167,1584.964l2.367-2.367,3.508,3.508-.013-14.792-14.792-.013,3.508,3.508-12.734,12.734" fill="none" stroke="#fff" stroke-miterlimit="10" stroke-width="1"/>
      <line id="Линия_27" data-name="Линия 27" y1="6.572" x2="6.572" transform="translate(1683.422 1586.138)" fill="none" stroke="#fff" stroke-miterlimit="10" stroke-width="1"/>
      <line id="Линия_28" data-name="Линия 28" y1="2.486" x2="2.486" transform="translate(1680.094 1593.551)" fill="none" stroke="#fff" stroke-miterlimit="10" stroke-width="1"/>
      <line id="Линия_29" data-name="Линия 29" y1="4.078" x2="4.078" transform="translate(1674.288 1586.728)" fill="none" stroke="#fff" stroke-miterlimit="10" stroke-width="1"/>
      <line id="Линия_30" data-name="Линия 30" y1="3.351" x2="3.351" transform="translate(1679.495 1582.247)" fill="none" stroke="#fff" stroke-miterlimit="10" stroke-width="1"/>
      <line id="Линия_31" data-name="Линия 31" y1="10.908" x2="10.908" transform="translate(1678.627 1581.077)" fill="none" stroke="#fff" stroke-miterlimit="10" stroke-width="1"/>
      <line id="Линия_32" data-name="Линия 32" y1="2.55" x2="2.55" transform="translate(1683.87 1578.673)" fill="none" stroke="#fff" stroke-miterlimit="10" stroke-width="1"/>
    </g>
  </g>
</svg>
