<?xml version="1.0" encoding="utf-8"?>
<!-- Generator: Adobe Illustrator 26.0.2, SVG Export Plug-In . SVG Version: 6.00 Build 0)  -->
<svg version="1.1" id="Layer_1" xmlns="http://www.w3.org/2000/svg" xmlns:xlink="http://www.w3.org/1999/xlink" x="0px" y="0px"
	 viewBox="0 0 117 117" style="enable-background:new 0 0 117 117;" xml:space="preserve">
<style type="text/css">
	.st0{enable-background:new    ;}
	.st1{fill:#21B8EC;}
	.st2{fill:#21B8EC;stroke:#21B8EC;}
</style>
<g class="st0">
	<g>
		<path class="st1" d="M25.3,88c-6.4,0-11.4-2.2-14.8-6.4c-3.3-4.2-5.1-10.1-5.2-17.8V53.7c0-7.9,1.7-14.1,5.1-18.3
			c3.4-4.3,8.4-6.5,14.8-6.5c6.4,0,11.4,2.2,14.8,6.4c3.3,4.2,5.1,10.1,5.2,17.8v10.1c0,7.9-1.7,14-5,18.2
			C36.7,85.8,31.7,88,25.3,88z M25.2,31.8c-5.6,0-9.7,1.8-12.6,5.4c-3,3.7-4.5,9.3-4.5,16.5v10.1c0.1,7,1.6,12.4,4.5,16.1
			c2.9,3.6,7,5.4,12.6,5.4c5.6,0,9.8-1.8,12.7-5.5c2.9-3.7,4.4-9.3,4.4-16.5V53.2c-0.1-7-1.6-12.4-4.5-16
			C34.9,33.5,30.8,31.8,25.2,31.8z M25.3,79.3c-3.2,0-5.6-1.4-7.1-4c-1.3-2.4-2-5.9-2-10.6V51.3c0.1-4.5,0.8-7.8,2.1-10
			c1.5-2.4,3.8-3.6,6.8-3.6c3.1,0,5.5,1.3,7,3.8c1.4,2.3,2.1,5.8,2.1,10.6v13c-0.1,4.6-0.7,7.9-2,10.2
			C30.8,77.9,28.4,79.3,25.3,79.3z M25.2,40.5c-2.1,0-3.5,0.7-4.5,2.3c-1.1,1.7-1.7,4.6-1.7,8.5v13.3c0,4.2,0.6,7.3,1.6,9.3
			c1,1.7,2.4,2.5,4.6,2.5c2.2,0,3.6-0.8,4.5-2.4c1.1-1.9,1.6-4.9,1.7-8.9v-13c0-4.3-0.6-7.4-1.7-9.2C28.8,41.3,27.3,40.5,25.2,40.5z
			"/>
	</g>
	<g>
		<path class="st1" d="M58.2,87.7c-2.1,0-3.9-0.7-5.3-2c-1.4-1.3-2.2-3.1-2.2-5.2c0-2.1,0.7-3.9,2.2-5.2c1.4-1.3,3.2-2,5.3-2
			c2.1,0,3.9,0.7,5.4,2c1.5,1.3,2.2,3.1,2.2,5.2c0,2.1-0.7,3.8-2.2,5.2C62.2,87,60.4,87.7,58.2,87.7z M58.2,76.1
			c-1.4,0-2.5,0.4-3.4,1.2c-0.9,0.8-1.3,1.9-1.3,3.2c0,1.3,0.4,2.3,1.3,3.1c0.9,0.8,2,1.2,3.5,1.2c1.5,0,2.6-0.4,3.5-1.2
			c0.9-0.8,1.3-1.8,1.3-3.1c0-1.3-0.4-2.4-1.3-3.2C60.8,76.5,59.6,76.1,58.2,76.1z"/>
	</g>
	<g>
		<path class="st1" d="M91.8,88c-6.4,0-11.4-2.2-14.8-6.4c-3.3-4.2-5.1-10.1-5.2-17.8V53.7c0-7.9,1.7-14.1,5.1-18.3
			c3.4-4.3,8.4-6.5,14.8-6.5c6.4,0,11.4,2.2,14.8,6.4c3.3,4.2,5.1,10.1,5.2,17.8v10.1c0,7.9-1.7,14-5,18.2
			C103.3,85.8,98.3,88,91.8,88z M91.7,31.8c-5.6,0-9.7,1.8-12.6,5.4c-3,3.7-4.5,9.3-4.5,16.5v10.1c0.1,7,1.6,12.4,4.5,16.1
			c2.9,3.6,7,5.4,12.6,5.4c5.6,0,9.8-1.8,12.7-5.5c2.9-3.7,4.4-9.3,4.4-16.5V53.2c-0.1-7-1.6-12.4-4.5-16
			C101.4,33.5,97.3,31.8,91.7,31.8z M91.8,79.3c-3.2,0-5.6-1.4-7.1-4c-1.3-2.4-2-5.9-2-10.6V51.3c0.1-4.5,0.8-7.8,2.1-10
			c1.5-2.4,3.8-3.6,6.8-3.6c3.1,0,5.5,1.3,7,3.8c1.4,2.3,2.1,5.8,2.1,10.6v13c-0.1,4.6-0.7,7.9-2,10.2C97.4,77.9,95,79.3,91.8,79.3z
			 M91.7,40.5c-2.1,0-3.5,0.7-4.5,2.3c-1.1,1.7-1.7,4.6-1.7,8.5v13.3c0,4.2,0.6,7.3,1.6,9.3c1,1.7,2.4,2.5,4.6,2.5
			c2.2,0,3.6-0.8,4.5-2.4c1.1-1.9,1.6-4.9,1.7-8.9v-13c0-4.3-0.6-7.4-1.7-9.2C95.4,41.3,93.9,40.5,91.7,40.5z"/>
	</g>
</g>
</svg>
